<svg width="250" height="63" viewBox="0 0 250 63" fill="none" xmlns="http://www.w3.org/2000/svg">
<path d="M27.016 46L11.912 26.16V46H0.968V1.072H11.912V20.784L26.888 1.072H39.752L22.344 23.088L40.392 46H27.016ZM79.257 27.568C79.257 28.592 79.193 29.6587 79.065 30.768H54.297C54.4677 32.9867 55.1717 34.6933 56.409 35.888C57.689 37.04 59.2463 37.616 61.081 37.616C63.8117 37.616 65.7103 36.464 66.777 34.16H78.425C77.8277 36.5067 76.7397 38.6187 75.161 40.496C73.625 42.3733 71.6837 43.8453 69.337 44.912C66.9903 45.9787 64.3663 46.512 61.465 46.512C57.9663 46.512 54.8517 45.7653 52.121 44.272C49.3903 42.7787 47.257 40.6453 45.721 37.872C44.185 35.0987 43.417 31.856 43.417 28.144C43.417 24.432 44.1637 21.1893 45.657 18.416C47.193 15.6427 49.3263 13.5093 52.057 12.016C54.7877 10.5227 57.9237 9.776 61.465 9.776C64.921 9.776 67.993 10.5013 70.681 11.952C73.369 13.4027 75.4597 15.472 76.953 18.16C78.489 20.848 79.257 23.984 79.257 27.568ZM68.057 24.688C68.057 22.8107 67.417 21.3173 66.137 20.208C64.857 19.0987 63.257 18.544 61.337 18.544C59.5023 18.544 57.945 19.0773 56.665 20.144C55.4277 21.2107 54.6597 22.7253 54.361 24.688H68.057ZM121.511 10.288L99.1105 62.96H87.3345L95.5265 44.784L80.9985 10.288H93.2225L101.479 32.624L109.671 10.288H121.511ZM155.292 15.28C154.481 13.7867 153.308 12.656 151.772 11.888C150.279 11.0773 148.508 10.672 146.46 10.672C142.919 10.672 140.081 11.8453 137.948 14.192C135.815 16.496 134.748 19.5893 134.748 23.472C134.748 27.6107 135.857 30.8533 138.076 33.2C140.337 35.504 143.431 36.656 147.356 36.656C150.044 36.656 152.305 35.9733 154.14 34.608C156.017 33.2427 157.383 31.28 158.236 28.72H144.348V20.656H168.156V30.832C167.345 33.5627 165.959 36.1013 163.996 38.448C162.076 40.7947 159.623 42.6933 156.636 44.144C153.649 45.5947 150.279 46.32 146.524 46.32C142.087 46.32 138.119 45.36 134.62 43.44C131.164 41.4773 128.455 38.768 126.492 35.312C124.572 31.856 123.612 27.9093 123.612 23.472C123.612 19.0347 124.572 15.088 126.492 11.632C128.455 8.13333 131.164 5.424 134.62 3.504C138.076 1.54133 142.023 0.559998 146.46 0.559998C151.836 0.559998 156.359 1.86133 160.028 4.464C163.74 7.06667 166.193 10.672 167.388 15.28H155.292ZM207.882 27.568C207.882 28.592 207.818 29.6587 207.69 30.768H182.922C183.093 32.9867 183.797 34.6933 185.034 35.888C186.314 37.04 187.871 37.616 189.706 37.616C192.437 37.616 194.335 36.464 195.402 34.16H207.05C206.453 36.5067 205.365 38.6187 203.786 40.496C202.25 42.3733 200.309 43.8453 197.962 44.912C195.615 45.9787 192.991 46.512 190.09 46.512C186.591 46.512 183.477 45.7653 180.746 44.272C178.015 42.7787 175.882 40.6453 174.346 37.872C172.81 35.0987 172.042 31.856 172.042 28.144C172.042 24.432 172.789 21.1893 174.282 18.416C175.818 15.6427 177.951 13.5093 180.682 12.016C183.413 10.5227 186.549 9.776 190.09 9.776C193.546 9.776 196.618 10.5013 199.306 11.952C201.994 13.4027 204.085 15.472 205.578 18.16C207.114 20.848 207.882 23.984 207.882 27.568ZM196.682 24.688C196.682 22.8107 196.042 21.3173 194.762 20.208C193.482 19.0987 191.882 18.544 189.962 18.544C188.127 18.544 186.57 19.0773 185.29 20.144C184.053 21.2107 183.285 22.7253 182.986 24.688H196.682ZM235.416 9.904C239.597 9.904 242.925 11.2693 245.4 14C247.917 16.688 249.176 20.4 249.176 25.136V46H238.296V26.608C238.296 24.2187 237.677 22.3627 236.44 21.04C235.202 19.7173 233.538 19.056 231.448 19.056C229.357 19.056 227.693 19.7173 226.456 21.04C225.218 22.3627 224.6 24.2187 224.6 26.608V46H213.656V10.288H224.6V15.024C225.709 13.4453 227.202 12.208 229.08 11.312C230.957 10.3733 233.069 9.904 235.416 9.904Z" fill="white"/>
</svg>
